<svg width="186" height="24" viewBox="0 0 186 24" fill="none" xmlns="http://www.w3.org/2000/svg">
<g clip-path="url(#clip0_1_464)">
<path d="M15.402 21V14.034H17.735L18.084 11.326H15.402V9.598C15.402 8.814 15.62 8.279 16.744 8.279H18.178V5.857C17.4838 5.78334 16.7861 5.74762 16.088 5.75C14.021 5.75 12.606 7.012 12.606 9.33V11.326H10.268V14.034H12.606V21H4C3.73478 21 3.48043 20.8946 3.29289 20.7071C3.10536 20.5196 3 20.2652 3 20V4C3 3.73478 3.10536 3.48043 3.29289 3.29289C3.48043 3.10536 3.73478 3 4 3H20C20.2652 3 20.5196 3.10536 20.7071 3.29289C20.8946 3.48043 21 3.73478 21 4V20C21 20.2652 20.8946 20.5196 20.7071 20.7071C20.5196 20.8946 20.2652 21 20 21H15.402Z" fill="white"/>
</g>
<g clip-path="url(#clip1_1_464)">
<path d="M76.162 5.65599C75.3986 5.99368 74.589 6.21546 73.76 6.31399C74.6337 5.79142 75.2877 4.969 75.6 3.99999C74.78 4.48799 73.881 4.82999 72.944 5.01499C72.3146 4.34157 71.4804 3.89495 70.5709 3.74457C69.6615 3.59419 68.7279 3.74848 67.9153 4.18344C67.1026 4.6184 66.4564 5.30967 66.0771 6.14978C65.6978 6.98989 65.6067 7.93177 65.818 8.82899C64.1551 8.74564 62.5283 8.31351 61.0433 7.56065C59.5582 6.80779 58.2481 5.75104 57.198 4.45899C56.8263 5.09744 56.6309 5.82321 56.632 6.56199C56.632 8.01199 57.37 9.29299 58.492 10.043C57.828 10.0221 57.1786 9.84277 56.598 9.51999V9.57199C56.5982 10.5377 56.9324 11.4736 57.5438 12.221C58.1553 12.9685 59.0065 13.4815 59.953 13.673C59.3366 13.84 58.6903 13.8646 58.063 13.745C58.3299 14.5762 58.85 15.3032 59.5506 15.8241C60.2512 16.345 61.0971 16.6338 61.97 16.65C61.1025 17.3313 60.1092 17.835 59.0469 18.1322C57.9846 18.4293 56.8741 18.5142 55.779 18.382C57.6907 19.6114 59.9161 20.2641 62.189 20.262C69.882 20.262 74.089 13.889 74.089 8.36199C74.089 8.18199 74.084 7.99999 74.076 7.82199C74.8949 7.23016 75.6016 6.49701 76.163 5.65699L76.162 5.65599Z" fill="white"/>
</g>
<g clip-path="url(#clip2_1_464)">
<path d="M120 2C122.717 2 123.056 2.01 124.122 2.06C125.187 2.11 125.912 2.277 126.55 2.525C127.21 2.779 127.766 3.123 128.322 3.678C128.83 4.1779 129.224 4.78259 129.475 5.45C129.722 6.087 129.89 6.813 129.94 7.878C129.987 8.944 130 9.283 130 12C130 14.717 129.99 15.056 129.94 16.122C129.89 17.187 129.722 17.912 129.475 18.55C129.225 19.2178 128.831 19.8226 128.322 20.322C127.822 20.8303 127.217 21.2238 126.55 21.475C125.913 21.722 125.187 21.89 124.122 21.94C123.056 21.987 122.717 22 120 22C117.283 22 116.944 21.99 115.878 21.94C114.813 21.89 114.088 21.722 113.45 21.475C112.782 21.2245 112.178 20.8309 111.678 20.322C111.169 19.8222 110.776 19.2175 110.525 18.55C110.277 17.913 110.11 17.187 110.06 16.122C110.013 15.056 110 14.717 110 12C110 9.283 110.01 8.944 110.06 7.878C110.11 6.812 110.277 6.088 110.525 5.45C110.775 4.78218 111.169 4.17732 111.678 3.678C112.178 3.16923 112.782 2.77573 113.45 2.525C114.088 2.277 114.812 2.11 115.878 2.06C116.944 2.013 117.283 2 120 2ZM120 7C118.674 7 117.402 7.52678 116.464 8.46447C115.527 9.40215 115 10.6739 115 12C115 13.3261 115.527 14.5979 116.464 15.5355C117.402 16.4732 118.674 17 120 17C121.326 17 122.598 16.4732 123.536 15.5355C124.473 14.5979 125 13.3261 125 12C125 10.6739 124.473 9.40215 123.536 8.46447C122.598 7.52678 121.326 7 120 7ZM126.5 6.75C126.5 6.41848 126.368 6.10054 126.134 5.86612C125.899 5.6317 125.582 5.5 125.25 5.5C124.918 5.5 124.601 5.6317 124.366 5.86612C124.132 6.10054 124 6.41848 124 6.75C124 7.08152 124.132 7.39946 124.366 7.63388C124.601 7.8683 124.918 8 125.25 8C125.582 8 125.899 7.8683 126.134 7.63388C126.368 7.39946 126.5 7.08152 126.5 6.75ZM120 9C120.796 9 121.559 9.31607 122.121 9.87868C122.684 10.4413 123 11.2044 123 12C123 12.7956 122.684 13.5587 122.121 14.1213C121.559 14.6839 120.796 15 120 15C119.204 15 118.441 14.6839 117.879 14.1213C117.316 13.5587 117 12.7956 117 12C117 11.2044 117.316 10.4413 117.879 9.87868C118.441 9.31607 119.204 9 120 9Z" fill="white"/>
</g>
<g clip-path="url(#clip3_1_464)">
<path d="M183.543 6.498C184 8.28 184 12 184 12C184 12 184 15.72 183.543 17.502C183.289 18.487 182.546 19.262 181.605 19.524C179.896 20 174 20 174 20C174 20 168.107 20 166.395 19.524C165.45 19.258 164.708 18.484 164.457 17.502C164 15.72 164 12 164 12C164 12 164 8.28 164.457 6.498C164.711 5.513 165.454 4.738 166.395 4.476C168.107 4 174 4 174 4C174 4 179.896 4 181.605 4.476C182.55 4.742 183.292 5.516 183.543 6.498ZM172 15.5L178 12L172 8.5V15.5Z" fill="white"/>
</g>
<defs>
<clipPath id="clip0_1_464">
<rect width="24" height="24" fill="white"/>
</clipPath>
<clipPath id="clip1_1_464">
<rect width="24" height="24" fill="white" transform="translate(54)"/>
</clipPath>
<clipPath id="clip2_1_464">
<rect width="24" height="24" fill="white" transform="translate(108)"/>
</clipPath>
<clipPath id="clip3_1_464">
<rect width="24" height="24" fill="white" transform="translate(162)"/>
</clipPath>
</defs>
</svg>
